<?xml version="1.0" encoding="UTF-8" standalone="no"?>
<svg
   version="1.2"
   width="182mm"
   height="140mm"
   viewBox="0 0 18200 14000"
   preserveAspectRatio="xMidYMid"
   fill-rule="evenodd"
   stroke-width="28.222"
   stroke-linejoin="round"
   xml:space="preserve"
   id="svg22"
   sodipodi:docname="F-Liner_logo.svg"
   inkscape:version="1.3 (0e150ed, 2023-07-21)"
   xmlns:inkscape="http://www.inkscape.org/namespaces/inkscape"
   xmlns:sodipodi="http://sodipodi.sourceforge.net/DTD/sodipodi-0.dtd"
   xmlns="http://www.w3.org/2000/svg"
   xmlns:svg="http://www.w3.org/2000/svg"
   xmlns:ooo="http://xml.openoffice.org/svg/export"><sodipodi:namedview
   id="namedview22"
   pagecolor="#ffffff"
   bordercolor="#000000"
   borderopacity="0.25"
   inkscape:showpageshadow="2"
   inkscape:pageopacity="0.0"
   inkscape:pagecheckerboard="0"
   inkscape:deskcolor="#d1d1d1"
   inkscape:document-units="mm"
   inkscape:zoom="0.38031178"
   inkscape:cx="415.44861"
   inkscape:cy="378.63671"
   inkscape:window-width="1392"
   inkscape:window-height="449"
   inkscape:window-x="54"
   inkscape:window-y="25"
   inkscape:window-maximized="0"
   inkscape:current-layer="id1" />&#10; <defs
   class="ClipPathGroup"
   id="defs2">&#10;  <clipPath
   id="presentation_clip_path"
   clipPathUnits="userSpaceOnUse">&#10;   <rect
   x="0"
   y="0"
   width="61500"
   height="14000"
   id="rect1" />&#10;  </clipPath>&#10;  <clipPath
   id="presentation_clip_path_shrink"
   clipPathUnits="userSpaceOnUse">&#10;   <rect
   x="61"
   y="14"
   width="61377"
   height="13972"
   id="rect2" />&#10;  </clipPath>&#10; </defs>&#10; <defs
   class="TextShapeIndex"
   id="defs3">&#10;  <g
   ooo:slide="id1"
   ooo:id-list="id3 id4 id5 id6 id7 id8"
   id="g2" />&#10; </defs>&#10; <defs
   class="EmbeddedBulletChars"
   id="defs12">&#10;  <g
   id="bullet-char-template-57356"
   transform="matrix(4.8828125e-4,0,0,-4.8828125e-4,0,0)">&#10;   <path
   d="M 580,1141 1163,571 580,0 -4,571 Z"
   id="path3" />&#10;  </g>&#10;  <g
   id="bullet-char-template-57354"
   transform="matrix(4.8828125e-4,0,0,-4.8828125e-4,0,0)">&#10;   <path
   d="M 8,1128 H 1137 V 0 H 8 Z"
   id="path4" />&#10;  </g>&#10;  <g
   id="bullet-char-template-10146"
   transform="matrix(4.8828125e-4,0,0,-4.8828125e-4,0,0)">&#10;   <path
   d="M 174,0 602,739 174,1481 1456,739 Z M 1358,739 309,1346 659,739 Z"
   id="path5" />&#10;  </g>&#10;  <g
   id="bullet-char-template-10132"
   transform="matrix(4.8828125e-4,0,0,-4.8828125e-4,0,0)">&#10;   <path
   d="M 2015,739 1276,0 H 717 l 543,543 H 174 v 393 h 1086 l -543,545 h 557 z"
   id="path6" />&#10;  </g>&#10;  <g
   id="bullet-char-template-10007"
   transform="matrix(4.8828125e-4,0,0,-4.8828125e-4,0,0)">&#10;   <path
   d="m 0,-2 c -7,16 -16,29 -25,39 l 381,530 c -94,256 -141,385 -141,387 0,25 13,38 40,38 9,0 21,-2 34,-5 21,4 42,12 65,25 l 27,-13 111,-251 280,301 64,-25 24,25 c 21,-10 41,-24 62,-43 C 886,937 835,863 770,784 769,783 710,716 594,584 L 774,223 c 0,-27 -21,-55 -63,-84 l 16,-20 C 717,90 699,76 672,76 641,76 570,178 457,381 L 164,-76 c -22,-34 -53,-51 -92,-51 -42,0 -63,17 -64,51 -7,9 -10,24 -10,44 0,9 1,19 2,30 z"
   id="path7" />&#10;  </g>&#10;  <g
   id="bullet-char-template-10004"
   transform="matrix(4.8828125e-4,0,0,-4.8828125e-4,0,0)">&#10;   <path
   d="M 285,-33 C 182,-33 111,30 74,156 52,228 41,333 41,471 c 0,78 14,145 41,201 34,71 87,106 158,106 53,0 88,-31 106,-94 l 23,-176 c 8,-64 28,-97 59,-98 l 735,706 c 11,11 33,17 66,17 42,0 63,-15 63,-46 V 965 c 0,-36 -10,-64 -30,-84 L 442,47 C 390,-6 338,-33 285,-33 Z"
   id="path8" />&#10;  </g>&#10;  <g
   id="bullet-char-template-9679"
   transform="matrix(4.8828125e-4,0,0,-4.8828125e-4,0,0)">&#10;   <path
   d="M 813,0 C 632,0 489,54 383,161 276,268 223,411 223,592 c 0,181 53,324 160,431 106,107 249,161 430,161 179,0 323,-54 432,-161 108,-107 162,-251 162,-431 0,-180 -54,-324 -162,-431 C 1136,54 992,0 813,0 Z"
   id="path9" />&#10;  </g>&#10;  <g
   id="bullet-char-template-8226"
   transform="matrix(4.8828125e-4,0,0,-4.8828125e-4,0,0)">&#10;   <path
   d="m 346,457 c -73,0 -137,26 -191,78 -54,51 -81,114 -81,188 0,73 27,136 81,188 54,52 118,78 191,78 73,0 134,-26 185,-79 51,-51 77,-114 77,-187 0,-75 -25,-137 -76,-188 -50,-52 -112,-78 -186,-78 z"
   id="path10" />&#10;  </g>&#10;  <g
   id="bullet-char-template-8211"
   transform="matrix(4.8828125e-4,0,0,-4.8828125e-4,0,0)">&#10;   <path
   d="M -4,459 H 1135 V 606 H -4 Z"
   id="path11" />&#10;  </g>&#10;  <g
   id="bullet-char-template-61548"
   transform="matrix(4.8828125e-4,0,0,-4.8828125e-4,0,0)">&#10;   <path
   d="m 173,740 c 0,163 58,303 173,419 116,115 255,173 419,173 163,0 302,-58 418,-173 116,-116 174,-256 174,-419 0,-163 -58,-303 -174,-418 C 1067,206 928,148 765,148 601,148 462,206 346,322 231,437 173,577 173,740 Z"
   id="path12" />&#10;  </g>&#10; </defs>&#10; <defs
   class="TextEmbeddedBitmaps"
   id="defs13" />&#10; <g
   id="g13">&#10;  <g
   id="id2"
   class="Master_Slide">&#10;   <g
   id="bg-id2"
   class="Background" />&#10;   <g
   id="bo-id2"
   class="BackgroundObjects" />&#10;  </g>&#10; </g>&#10; <g
   class="SlideGroup"
   id="g22">&#10;  <g
   id="g21">&#10;   <g
   id="container-id1">&#10;    <g
   id="id1"
   class="Slide"
   clip-path="url(#presentation_clip_path)">&#10;     <g
   class="Page"
   id="g20">&#10;      <g
   class="com.sun.star.drawing.ClosedBezierShape"
   id="g14">&#10;       <g
   id="id3">&#10;        <rect
   class="BoundingBox"
   stroke="none"
   fill="none"
   x="29507"
   y="2000"
   width="11390"
   height="10001"
   id="rect13" />&#10;        &#10;       </g>&#10;      </g>&#10;      <g
   class="com.sun.star.drawing.ClosedBezierShape"
   id="g15">&#10;       <g
   id="id4">&#10;        <rect
   class="BoundingBox"
   stroke="none"
   fill="none"
   x="41024"
   y="2071"
   width="10777"
   height="9930"
   id="rect14" />&#10;        &#10;       </g>&#10;      </g>&#10;      <g
   class="com.sun.star.drawing.ClosedBezierShape"
   id="g16">&#10;       <g
   id="id5">&#10;        <rect
   class="BoundingBox"
   stroke="none"
   fill="none"
   x="19028"
   y="2333"
   width="10780"
   height="9668"
   id="rect15" />&#10;        &#10;       </g>&#10;      </g>&#10;      <g
   class="com.sun.star.drawing.PolyPolygonShape"
   id="g17">&#10;       <g
   id="id6">&#10;        <rect
   class="BoundingBox"
   stroke="none"
   fill="none"
   x="50499"
   y="6326"
   width="10780"
   height="1781"
   id="rect16" />&#10;        &#10;       </g>&#10;      </g>&#10;      <g
   class="com.sun.star.drawing.ClosedBezierShape"
   id="g18">&#10;       <g
   id="id7">&#10;        <rect
   class="BoundingBox"
   stroke="none"
   fill="none"
   x="222"
   y="344"
   width="17752"
   height="13312"
   id="rect17" />&#10;        <path
   fill="#00a041"
   stroke="none"
   d="m 17973,10105 c 0,1962 -1589,3550 -3551,3550 H 3771 C 1812,13655 223,12067 223,10105 V 3895 C 223,1933 1812,345 3771,345 h 10651 c 1962,0 3551,1588 3551,3550 z"
   id="path17" />&#10;       </g>&#10;      </g>&#10;      <g
   class="com.sun.star.drawing.ClosedBezierShape"
   id="g19">&#10;       <g
   id="id8">&#10;        <rect
   class="BoundingBox"
   stroke="none"
   fill="none"
   x="2650"
   y="2087"
   width="12970"
   height="10000"
   id="rect18" />&#10;        <path
   fill="#ffffff"
   stroke="none"
   d="M 4848,12085 5601,9112 C 5878,7981 7063,7059 8238,7059 h 4681 l 719,-1425 H 8189 c -620,0 -1253,157 -1836,447 l 127,-515 C 6761,4434 7942,3515 9121,3515 h 5763 l 735,-1428 H 8658 c -1842,0 -3850,1367 -4279,3112 l -1728,6886 z"
   id="path18" />&#10;       </g>&#10;      </g>&#10;     </g>&#10;    </g>&#10;   </g>&#10;  </g>&#10; </g>&#10;</svg>
