<?xml version="1.0" encoding="UTF-8" standalone="no"?>
<!-- Generator: Adobe Illustrator 16.0.3, SVG Export Plug-In . SVG Version: 6.00 Build 0)  -->

<svg
   version="1.0"
   id="レイヤー_1"
   x="0px"
   y="0px"
   width="240"
   height="60"
   viewBox="0 0 240 60"
   enable-background="new 0 0 100 60"
   xml:space="preserve"
   sodipodi:docname="S-TRAIN_logo.svg"
   inkscape:version="1.3 (0e150ed, 2023-07-21)"
   xmlns:inkscape="http://www.inkscape.org/namespaces/inkscape"
   xmlns:sodipodi="http://sodipodi.sourceforge.net/DTD/sodipodi-0.dtd"
   xmlns="http://www.w3.org/2000/svg"
   xmlns:svg="http://www.w3.org/2000/svg"
   xmlns:ns="&amp;ns_sfw;"><defs
   id="defs10" /><sodipodi:namedview
   id="namedview10"
   pagecolor="#ffffff"
   bordercolor="#000000"
   borderopacity="0.25"
   inkscape:showpageshadow="2"
   inkscape:pageopacity="0.0"
   inkscape:pagecheckerboard="0"
   inkscape:deskcolor="#d1d1d1"
   showgrid="true"
   inkscape:zoom="1.7791345"
   inkscape:cx="95.552078"
   inkscape:cy="88.807225"
   inkscape:window-width="1392"
   inkscape:window-height="847"
   inkscape:window-x="54"
   inkscape:window-y="25"
   inkscape:window-maximized="1"
   inkscape:current-layer="レイヤー_1"><inkscape:grid
     id="grid10"
     units="px"
     originx="0"
     originy="0"
     spacingx="1"
     spacingy="1"
     empcolor="#0099e5"
     empopacity="0.30196078"
     color="#0099e5"
     opacity="0.14901961"
     empspacing="5"
     dotted="false"
     gridanglex="30"
     gridanglez="30"
     visible="true" /></sodipodi:namedview>&#10;<metadata
   id="metadata1">&#10;	<ns:sfw>&#10;		<ns:slices />&#10;		<ns:sliceSourceBounds
   width="83.24"
   height="49.945"
   x="8.775"
   y="-54.64"
   bottomLeftOrigin="true" />&#10;	</ns:sfw>&#10;</metadata>&#10;<path
   fill="#006eb7"
   d="m 42.145903,38.250683 c 0.213308,6.504035 -6.696622,10.153417 -10.046153,11.073684 -2.496301,0.694773 -5.174221,1.040939 -8.030097,1.040939 -5.126683,0 -10.187546,-1.221336 -15.1813696,-3.664006 -1.0604411,-0.48756 -1.6942678,-0.733778 -1.9014803,-0.733778 -0.2462174,0 -0.6350458,0.207214 -1.1640472,0.62164 L 5,46.164985 l 4.200321,-9.442799 0.822756,0.394922 v 0.366889 c 0,0.844695 0.405893,1.624791 1.220116,2.339063 1.229869,1.089695 3.13013,2.029467 5.703223,2.819311 2.573092,0.788628 5.013324,1.184768 7.321917,1.184768 2.514586,0 4.662283,-0.422957 6.440655,-1.266433 0.984868,-0.468057 1.76862,-1.092132 2.356129,-1.86979 0.58629,-0.778875 1.017779,-1.668672 1.154296,-2.502397 0.843478,-5.166906 -3.785896,-9.422077 -13.932,-9.217302 0,0 2.314687,-0.882483 6.596674,-0.882483 8.94427,0 15.064355,4.140595 15.261816,10.161949"
   id="path1"
   style="stroke-width:1.2189" />&#10;<path
   fill="#8ec21f"
   d="M 27.886021,32.09525 C 19.869331,32.909474 13.044724,32.396318 9.0308943,28.289852 6.8734455,26.082428 5.9543969,22.880385 6.5248408,19.397994 6.8807589,17.233233 8.1106266,15.347598 9.7281036,13.920267 12.780223,11.227724 17.174349,9.7821107 23.07625,9.7821107 c 2.47802,0 4.785392,0.2498743 6.923341,0.7508413 2.137944,0.499749 4.806112,1.420016 8.002061,2.759585 1.097007,0.435146 1.768619,0.652109 2.014837,0.652109 0.397362,0 0.860542,-0.216963 1.390763,-0.652109 l 0.794721,0.425395 -4.625717,9.058847 -0.794721,-0.450992 c 0.0195,-0.187711 0.02805,-0.337636 0.02805,-0.450993 0,-0.638701 -0.548505,-1.324942 -1.645512,-2.057498 -3.369033,-2.329314 -7.323137,-3.4958 -11.862312,-3.4958 -2.005086,0 -3.816368,0.245 -5.454566,0.811787 -2.846125,0.984869 -4.369748,3.043586 -4.396563,5.7276 -0.06093,6.268789 7.8046,8.106887 14.435403,9.234367"
   id="path2"
   style="stroke-width:1.2189" />&#10;<path
   fill="#4d5357"
   d="m 74.448992,35.225005 c 0.147556,4.471364 -4.60774,6.982035 -6.908256,7.614732 -1.71924,0.480674 -3.559207,0.717655 -5.52437,0.717655 -3.527908,0 -7.006626,-0.840616 -10.442871,-2.52185 -0.728831,-0.335352 -1.16479,-0.503028 -1.307874,-0.503028 -0.169912,0 -0.435957,0.140847 -0.800376,0.422543 l -0.565625,-0.288402 2.888501,-6.496891 0.565627,0.272752 v 0.252633 c 0,0.581277 0.27946,1.117841 0.840615,1.607453 0.845088,0.753429 2.152963,1.395068 3.921387,1.938338 1.770661,0.54327 3.449658,0.816023 5.036992,0.816023 1.730417,0 3.205969,-0.290636 4.431122,-0.871916 0.675176,-0.324173 1.21621,-0.751188 1.618633,-1.287751 0.404659,-0.534328 0.699768,-1.14467 0.793668,-1.721476 0.581276,-3.554735 -2.602335,-6.479008 -9.582134,-6.340392 0,0 1.591806,-0.605871 4.536198,-0.605871 6.152597,0.0046 10.362387,2.854965 10.498763,6.995448"
   id="path3"
   style="stroke-width:2.23568" />&#10;<path
   fill="#4d5357"
   d="m 64.641056,30.990625 c -5.513192,0.56339 -10.208125,0.205681 -12.969191,-2.617985 -1.484493,-1.518028 -2.114955,-3.717938 -1.723711,-6.114589 0.243691,-1.488965 1.091013,-2.785659 2.204383,-3.769359 2.099305,-1.851146 5.119711,-2.846024 9.179708,-2.846024 1.705826,0 3.293162,0.174385 4.764241,0.516442 1.46884,0.344295 3.304338,0.976993 5.504247,1.898095 0.753424,0.301817 1.21621,0.44937 1.383886,0.44937 0.272755,0 0.592458,-0.147553 0.956872,-0.44937 l 0.547743,0.292874 -3.183613,6.230845 -0.545504,-0.31076 c 0.01344,-0.127432 0.02011,-0.23251 0.02011,-0.308524 0,-0.440429 -0.377831,-0.912157 -1.131254,-1.417424 -2.318401,-1.602982 -5.036992,-2.403356 -8.160241,-2.403356 -1.379414,0 -2.62469,0.167676 -3.751473,0.558921 -1.958458,0.67741 -3.00699,2.094833 -3.024879,3.939271 -0.04247,4.310395 5.367874,5.57579 9.928665,6.351573"
   id="path4"
   style="stroke-width:2.23568" />&#10;<path
   fill="#4d5357"
   d="m 88.129128,29.264676 v 6.628798 h -0.614811 c -0.127429,-0.462787 -0.29511,-0.782489 -0.498557,-0.961342 -0.205684,-0.178856 -0.5075,-0.268284 -0.903216,-0.268284 h -4.72623 c -0.384539,0 -0.681887,0.09167 -0.894274,0.279462 -0.210154,0.185561 -0.373359,0.500793 -0.489614,0.950164 h -0.614813 v -6.628798 h 0.614813 c 0.118491,0.453845 0.286166,0.773547 0.503028,0.954638 0.216861,0.183325 0.520915,0.274988 0.91663,0.274988 h 4.849194 c 0.406893,0 0.717652,-0.08942 0.927806,-0.266046 0.210155,-0.176619 0.364418,-0.496321 0.460551,-0.96358 z"
   id="path5"
   style="stroke-width:2.23568" />&#10;<path
   fill="#4d5357"
   d="M 106.23368,21.426378 V 41.31053 c 0,0.395718 0.0895,0.697535 0.26828,0.903216 0.1811,0.203447 0.5008,0.371123 0.96134,0.500793 v 0.612577 h -8.182591 v -0.612577 c 0.460547,-0.129671 0.780251,-0.297346 0.959111,-0.500793 0.17885,-0.207918 0.26828,-0.509735 0.26828,-0.903216 V 21.426378 h -8.144589 c -0.384539,0 -0.679647,0.08719 -0.885329,0.261573 -0.203447,0.174383 -0.371125,0.500793 -0.498559,0.96805 h -0.614811 v -6.783056 h 0.614811 c 0.140848,0.467255 0.310761,0.791429 0.509737,0.965812 0.198976,0.178856 0.489612,0.266047 0.874151,0.266047 h 21.996879 c 0.3957,0 0.69752,-0.08719 0.90321,-0.266047 0.20568,-0.174383 0.37112,-0.498557 0.49856,-0.965812 h 0.61481 v 6.783056 h -0.61481 c -0.12744,-0.467257 -0.29288,-0.791431 -0.49856,-0.96805 -0.20569,-0.174383 -0.50751,-0.261573 -0.90321,-0.261573 z"
   id="path6"
   style="stroke-width:2.23568" />&#10;<path
   fill="#4d5357"
   d="m 128.55249,32.627143 v 8.703509 c 0,0.384537 0.0938,0.681884 0.27947,0.894272 0.18331,0.210156 0.50302,0.371125 0.95016,0.489615 v 0.612577 h -8.18483 v -0.612577 c 0.46054,-0.129671 0.78248,-0.297346 0.96134,-0.500793 0.17886,-0.205681 0.26828,-0.500793 0.26828,-0.88533 V 19.119152 c 0,-0.39795 -0.0895,-0.699768 -0.26828,-0.903213 -0.17886,-0.205684 -0.5008,-0.371124 -0.96134,-0.498558 v -0.614813 h 16.40767 c 1.99646,0 3.58604,0.116251 4.75529,0.344295 1.17149,0.232511 2.19098,0.632698 3.06288,1.209505 1.01276,0.668468 1.76844,1.569447 2.26922,2.711882 0.47173,1.099954 0.70872,2.280395 0.70872,3.532376 0,4.279095 -2.37653,6.783059 -7.12735,7.51189 l 5.09064,7.24361 c 0.89649,1.267632 1.55381,2.083656 1.96964,2.448072 0.41807,0.366652 0.92555,0.567863 1.5292,0.605869 v 0.612577 h -9.47482 v -0.612577 c 0.65282,-0.105069 0.97924,-0.333115 0.97924,-0.69306 0,-0.232512 -0.30183,-0.789196 -0.89876,-1.672291 l -5.31196,-7.722044 h -7.00441 z m 0,-4.323809 h 8.83767 c 1.30562,0 2.22895,-0.04025 2.76552,-0.118491 0.53879,-0.07378 1.03287,-0.232511 1.48002,-0.4762 0.97251,-0.525387 1.4599,-1.47555 1.4599,-2.843787 0,-1.368237 -0.48961,-2.318402 -1.4599,-2.843788 -0.46055,-0.252633 -0.95241,-0.420308 -1.47106,-0.489614 -0.5187,-0.0693 -1.44426,-0.10507 -2.77448,-0.10507 h -8.83767 z"
   id="path7"
   style="stroke-width:2.23568" />&#10;<path
   fill="#4d5357"
   d="m 174.33925,36.642428 h -11.92064 l -1.76172,3.68664 c -0.2437,0.511969 -0.36442,0.916629 -0.36442,1.209503 0,0.563391 0.427,0.956871 1.28328,1.171496 v 0.612577 h -8.6722 v -0.612577 c 0.51195,-0.102843 0.89873,-0.281694 1.16926,-0.534327 0.26828,-0.257103 0.5768,-0.757896 0.92109,-1.500142 l 9.64472,-20.154674 c 0.30631,-0.639405 0.45834,-1.15361 0.45834,-1.538147 0,-0.590221 -0.37115,-1.012764 -1.11338,-1.267632 v -0.612577 h 9.30043 v 0.612577 c -0.75567,0.219096 -1.13573,0.596927 -1.13573,1.135726 0,0.371124 0.12293,0.791431 0.36442,1.26763 l 9.9935,20.208329 c 0.42032,0.860739 0.79143,1.444251 1.11337,1.759483 0.3197,0.315232 0.74671,0.518679 1.28552,0.62152 v 0.612578 h -9.65143 v -0.612578 c 0.84731,-0.138612 1.26761,-0.534329 1.26761,-1.189384 0,-0.270516 -0.12741,-0.666232 -0.38228,-1.191619 z m -1.64768,-3.592741 -4.25228,-9.342915 -4.32158,9.342915 z"
   id="path8"
   style="stroke-width:2.23568" />&#10;<path
   fill="#4d5357"
   d="M 191.07779,41.31053 V 19.101269 c 0,-0.386775 -0.0894,-0.67965 -0.26828,-0.88533 -0.17884,-0.205684 -0.50079,-0.371124 -0.96133,-0.500794 v -0.612577 h 8.18259 v 0.612577 c -0.46054,0.11625 -0.78248,0.279459 -0.96135,0.491849 -0.17883,0.210156 -0.26604,0.5075 -0.26604,0.892037 v 22.209265 c 0,0.395715 0.0916,0.699769 0.27499,0.912159 0.1878,0.212388 0.50527,0.375594 0.9524,0.491848 v 0.612577 h -8.18259 v -0.612577 c 0.46054,-0.129671 0.78249,-0.297345 0.96133,-0.500792 0.17887,-0.205683 0.26828,-0.505263 0.26828,-0.900981"
   id="path9"
   style="stroke-width:2.23568" />&#10;<path
   fill="#4d5357"
   d="m 211.90765,25.36565 v 15.947117 c 0,0.395717 0.0894,0.697533 0.26828,0.900979 0.17887,0.203447 0.50081,0.368888 0.96134,0.500793 v 0.612577 h -7.70191 v -0.612577 c 0.4583,-0.131898 0.78248,-0.297346 0.96134,-0.500793 0.17885,-0.205681 0.26604,-0.507498 0.26604,-0.900979 V 19.101269 c 0,-0.384537 -0.0871,-0.67965 -0.26604,-0.88533 -0.17886,-0.205684 -0.50304,-0.371124 -0.96134,-0.498558 v -0.614813 h 8.91141 v 0.614813 c -0.54997,0.140848 -0.82495,0.433721 -0.82495,0.883095 0,0.308522 0.17883,0.64611 0.53656,1.017232 l 14.46708,15.043905 V 19.101269 c 0,-0.384537 -0.0894,-0.67965 -0.26603,-0.88533 -0.17885,-0.205684 -0.50078,-0.371124 -0.96358,-0.498558 V 17.102568 H 235 v 0.614813 c -0.46279,0.12743 -0.78248,0.292874 -0.96134,0.498558 -0.17885,0.20568 -0.27052,0.500793 -0.27052,0.88533 v 22.211498 c 0,0.395717 0.0917,0.697533 0.27052,0.900979 0.17886,0.203447 0.49855,0.368888 0.96134,0.500793 v 0.612577 h -8.26307 v -0.612577 c 0.5388,-0.11849 0.80708,-0.393479 0.80708,-0.829437 0,-0.252632 -0.31523,-0.69977 -0.94346,-1.341411 z"
   id="path10"
   style="stroke-width:2.23568" />&#10;</svg>
